<svg width="172" height="46" viewBox="0 0 172 46" fill="none" xmlns="http://www.w3.org/2000/svg">
<path d="M160.182 44.6185H83.8086V45.2698H160.182V44.6185Z" fill="#FCBA19"/>
<path d="M9.55215 38.4139C20.3671 38.4139 35.4188 44.5077 46.3452 44.5077C54.1498 44.5077 61.7314 42.4026 66.0797 39.4111C68.8671 21.4622 56.4912 4.73197 38.5406 1.96207C20.5901 -0.80783 3.64296 11.4905 0.855603 29.3287C0.298132 32.6526 0.298132 36.0872 0.855603 39.4111C3.75445 38.8571 6.6533 38.5247 9.55215 38.4139Z" fill="white"/>
<path d="M54.707 26.3371L56.045 26.8911L58.9438 24.8968L54.707 26.3371Z" fill="#FCBA19"/>
<path d="M6.0957 24.1213L2.63938 22.9025L2.86236 22.4593L6.65317 23.7889L7.21064 23.4565H7.43363L3.19685 21.5729L3.41984 21.1298L12.7853 24.8968H13.1198L3.75432 20.2434L3.97731 19.8002L13.9003 24.3428H14.0118L4.42328 18.9138L4.64627 18.4707L18.4716 26.0048L18.9175 25.2292C15.5727 22.1269 12.1164 19.2462 8.54857 16.5871C12.3394 19.0246 16.2417 21.2406 20.2555 23.2349L20.8129 22.4593L9.10604 12.2661L9.44052 11.9337L18.9175 20.0218L10.1095 11.2689L10.444 10.9365L20.367 20.465L11.1129 10.2718L11.4474 9.93937L20.0325 19.0246L12.2279 9.2746L12.5624 8.94221L22.5968 21.019L23.3773 20.465C21.4819 16.3655 19.3635 12.4877 17.0221 8.60982C19.5865 12.2661 22.3738 15.8116 25.2727 19.1354L26.1647 18.6923L19.029 4.84276L19.475 4.62116L25.2727 15.7008L20.367 4.17798L20.8129 3.95639L26.3876 16.4763L21.7049 3.624H22.1509L26.6106 15.2576L23.0428 3.18082H23.4888L28.1715 18.0275L29.175 17.8059C28.952 13.2633 28.506 8.72061 27.7256 4.28878C28.729 8.60982 29.9555 12.8201 31.4049 17.0303H32.2968L31.0704 1.51888H31.5164L32.7428 13.928L32.5198 1.51888H32.9658L33.4118 15.2576L33.8577 1.51888H34.5267L34.3037 13.928L35.4187 1.51888H35.8646L34.6382 17.0303H35.6417C37.0911 12.9309 38.3175 8.72061 39.321 4.39957C38.652 8.72061 38.0945 13.1525 37.8715 17.5843L38.7635 17.9167L43.4463 3.07002H43.8922L40.3244 15.1468L44.7842 3.5132H45.2302L40.5474 16.5871L46.1221 4.06718L46.5681 4.28878L41.7738 15.7008L47.5715 4.62116L48.0175 4.84276L40.9934 18.6923L41.8853 19.1354C44.7842 15.8116 47.5715 12.3769 50.1359 8.72061C47.7945 12.4877 45.7876 16.4763 43.8922 20.465L44.6727 21.1298L54.3727 9.053L54.7072 9.38539L46.9026 19.1354L55.4876 10.0502L55.8221 10.3826L46.5681 20.5758L56.4911 11.0473L56.8256 11.3797L48.0175 20.1326L57.4945 12.0445L57.829 12.3769L46.2336 22.5701L46.7911 23.2349C50.8049 21.2406 54.5957 19.0246 58.3865 16.5871C54.8187 19.2462 51.3623 22.1269 48.129 25.1184L48.6865 26.0048L62.2888 18.5815L62.5118 19.0246L51.5853 25.1184L62.9577 19.911L63.1807 20.3542L52.5888 25.4508H52.8118L63.5152 21.2406L63.7382 21.6837L53.7037 25.894H53.9267L60.6164 23.6781L61.6198 23.0133L61.9543 23.2349L64.1842 22.5701L64.4072 23.0133L62.5118 23.6781L65.1876 25.7832L66.0796 26.2264C61.7313 8.38823 43.6692 -2.58057 25.7187 1.62967C13.2313 4.62116 3.53133 14.482 0.855469 27.0019L1.30145 26.7804H1.52443L6.0957 24.1213Z" fill="#FCBA19"/>
<path d="M0.521918 40.0759C3.53226 39.5219 6.54261 39.1895 9.55295 39.0787C20.3679 39.0787 35.4196 45.1725 46.346 45.1725C54.3736 45.1725 62.1782 42.9566 66.415 39.8543C67.1954 35.3117 67.084 30.769 65.969 26.3372L61.3977 23.7889L56.046 27.4451L52.4782 26.1156C51.2518 26.6696 43.7817 31.6554 43.7817 31.6554L40.8828 29.5503L37.8725 28.9963L33.7472 26.0048L29.0644 29.2179L23.6012 32.2094C23.3782 32.2094 17.246 27.3343 17.246 27.3343L14.4587 24.4537L12.0058 25.6724H11.8943L9.99893 25.1184L7.76904 23.8997L0.856401 27.002H0.744907C-0.147047 31.323 -0.258541 35.7548 0.521918 40.0759Z" fill="#4C81AF"/>
<path d="M110.679 22.2377H110.01C109.787 22.5701 109.787 22.9025 110.01 23.2349H115.362C115.473 23.1241 115.585 22.9025 115.585 22.6809C115.585 22.4593 115.473 22.3485 115.362 22.2377H114.693C113.801 22.2377 113.801 22.0161 113.801 20.2434V14.0388C113.801 12.2661 113.801 11.8229 114.693 11.8229H115.25C115.473 11.8229 115.585 11.8229 115.585 11.4905C115.585 11.1581 115.362 11.0473 115.139 11.0473H110.01C109.899 11.1581 109.787 11.3797 109.787 11.6013C109.787 11.7121 109.899 11.8229 110.01 11.8229H110.679C111.571 11.8229 111.571 12.1553 111.571 13.8172V20.1326C111.571 22.1269 111.571 22.1269 110.679 22.2377ZM97.4112 22.2377H96.6308C96.4078 22.5701 96.4078 22.9025 96.6308 23.2349H102.428C102.651 22.9025 102.651 22.5701 102.428 22.2377H101.425C100.645 22.2377 100.645 21.9053 100.645 21.1298V17.5843H100.868C102.205 17.5843 102.205 17.5843 102.763 18.6922L104.993 22.5701C105.216 23.0133 105.55 23.2349 105.996 23.2349H108.672C108.895 23.0133 109.007 22.5701 108.784 22.2377H107.892C107.446 22.1269 107.334 21.9053 107 21.4621L105.216 18.4707L104.547 17.2519C106.108 17.0303 107.223 15.7008 107.334 14.1496C107.334 11.8229 104.993 11.0473 102.986 11.0473H96.6308V11.2689C96.6308 11.4905 96.6308 11.8229 96.8538 11.9337H97.5227C98.5262 12.0445 98.5262 12.0445 98.5262 13.0417V20.9082C98.3032 22.1269 98.1917 22.2377 97.4112 22.2377ZM100.645 12.1553H101.983C103.32 12.1553 104.658 12.8201 104.658 14.2604C104.658 14.9252 104.435 15.59 103.878 15.9223C103.209 16.2547 102.54 16.4763 101.76 16.4763H100.645V12.1553ZM171.555 38.9679H171.109C170.663 38.8571 170.551 38.3031 170.328 37.7491V37.5276L166.426 28.3315C166.426 28.3315 166.203 27.6667 165.869 27.6667C165.534 27.6667 165.2 28.2207 165.088 28.4423L161.297 37.8599C161.074 38.4139 160.851 38.9679 160.405 38.9679H159.402C159.179 39.3003 159.068 39.6327 159.291 39.9651H163.639C163.862 39.6327 163.862 39.3003 163.639 38.9679H162.858C162.301 38.9679 162.301 38.8571 162.301 38.6355C162.301 38.4139 162.412 38.3031 162.524 38.0815L163.081 36.6412C163.081 36.6412 163.304 35.9764 163.639 35.9764H166.649C167.207 35.9764 167.318 36.752 167.318 36.752L167.764 37.9707L168.099 38.7463C168.099 38.8571 167.987 39.0787 167.318 39.0787H166.315C166.092 39.4111 166.092 39.7435 166.315 40.0759H171.666C172.001 40.0759 172.001 39.8543 172.001 39.4111C172.001 39.1895 171.889 39.0787 171.666 39.0787L171.555 38.9679ZM166.315 34.5361H163.639L164.977 30.9906L166.426 34.5361H166.315ZM116.142 13.5956C116.254 13.8172 116.477 13.928 116.7 13.928C116.7 13.928 117.034 14.0388 117.146 13.8172C117.369 13.374 117.592 12.9309 117.815 12.5985C118.372 12.1553 119.041 11.9337 119.71 12.0445H120.937V21.1298C120.937 21.9053 120.937 22.2377 120.268 22.2377H119.264C119.041 22.5701 119.041 22.9025 119.264 23.2349H124.839C124.95 23.1241 125.062 22.9025 125.062 22.6809C125.062 22.4593 124.95 22.3485 124.839 22.2377H124.058C123.278 22.2377 123.278 21.9053 123.278 20.5758V12.0445H124.839C125.508 11.9337 126.065 12.2661 126.511 12.7093C126.734 12.9309 126.846 13.374 126.846 13.7064H127.961C127.961 12.9309 127.961 12.0445 128.184 11.2689V10.8257H127.18C126.957 11.1581 126.957 11.1581 126.065 11.1581H119.041C118.149 11.1581 117.926 11.1581 117.815 10.8257H116.811C116.7 11.6013 116.477 12.3769 116.142 13.1524C116.142 13.2632 116.142 13.4848 116.142 13.5956ZM136.546 23.0133C137.661 23.4565 138.776 23.5673 139.891 23.5673H140.114C143.012 23.5673 144.908 22.0161 144.908 19.911C144.908 17.8059 144.016 17.1411 142.009 16.1439L140.337 15.2576C139.556 14.8144 138.664 14.1496 138.664 13.374C138.664 12.5985 139.445 11.7121 140.894 11.7121H141.228C142.343 11.7121 143.235 12.4877 143.458 13.4848H144.685V13.2632C144.685 12.4877 144.573 11.7121 144.239 10.9365H143.235L141.228 10.7149C137.995 10.8257 136.546 12.4877 136.657 14.2604C136.88 15.7008 137.772 17.0303 139.222 17.5843L141.228 18.6922C142.678 19.4678 142.789 20.2434 142.789 20.9082C142.789 21.5729 142.12 22.6809 140.448 22.6809C138.999 22.6809 137.661 21.7945 137.215 20.3542C137.103 20.1326 136.992 20.0218 136.769 20.0218H135.988C135.988 20.9082 136.211 21.7945 136.546 22.5701V23.0133ZM129.856 22.3485H129.41C129.187 22.5701 129.187 23.0133 129.41 23.2349H134.762C134.873 23.1241 134.985 22.9025 134.985 22.6809C134.985 22.4593 134.873 22.3485 134.762 22.2377H134.093C133.201 22.1269 133.201 22.1269 133.201 20.3542V14.1496C133.201 12.2661 133.201 11.9337 134.093 11.9337H134.65C134.873 11.8229 135.096 11.8229 134.985 11.4905C134.985 11.2689 134.762 11.0473 134.539 11.0473H129.41C129.299 11.1581 129.187 11.3797 129.187 11.6013C129.187 11.8229 129.299 11.8229 129.41 11.9337H130.079C130.971 11.9337 130.971 12.0445 130.971 13.928V20.1326C130.86 22.1269 130.86 22.1269 129.968 22.2377L129.856 22.3485ZM146.357 12.0445H147.026C147.695 12.0445 147.807 12.1553 147.807 14.0388V20.7974C147.807 22.1269 147.695 22.2377 147.026 22.2377H146.357C146.134 22.5701 146.134 22.9025 146.357 23.2349H151.486C151.597 23.1241 151.709 22.9025 151.709 22.6809C151.709 22.4593 151.597 22.3485 151.486 22.2377H150.928C150.371 22.2377 150.148 22.0161 150.148 20.3542V17.9167C150.148 17.8059 150.148 17.8059 150.148 17.6951H156.615C156.615 17.8059 156.615 20.7974 156.615 20.7974C156.615 20.7974 156.615 22.2377 155.834 22.2377H155.277C155.054 22.5701 155.054 22.9025 155.277 23.2349H160.294C160.405 23.1241 160.517 22.9025 160.517 22.6809C160.517 22.4593 160.405 22.3485 160.294 22.2377H159.625C158.845 22.2377 158.845 22.1269 158.845 20.465V13.928C158.845 12.1553 158.845 12.1553 159.625 12.0445H160.071C160.294 12.0445 160.517 11.7121 160.405 11.4905C160.405 11.2689 160.182 11.0473 159.959 11.0473H155.165C155.054 11.1581 154.942 11.2689 154.942 11.4905C154.942 11.7121 155.054 11.9337 155.165 12.0445H155.611C156.503 12.0445 156.503 12.1553 156.503 13.928C156.503 13.928 156.503 16.1439 156.503 16.2547H150.037C150.037 16.1439 150.037 14.0388 150.037 14.0388C150.037 12.2661 150.037 12.0445 150.705 12.0445H151.263C151.597 12.0445 151.597 11.8229 151.597 11.4905C151.597 11.1581 151.597 11.0473 151.151 11.0473H146.357C146.246 11.1581 146.134 11.2689 146.134 11.4905C146.134 11.7121 146.246 11.9337 146.357 12.0445ZM157.73 28.6639H158.287C158.51 28.6639 158.622 28.4423 158.622 28.2207C158.622 27.9991 158.287 27.7775 158.064 27.7775H152.824C152.601 27.9991 152.601 28.2207 152.601 28.4423C152.601 28.5531 152.712 28.6639 152.824 28.7747H153.493C154.385 28.7747 154.385 28.8855 154.385 30.8798V37.1952C154.385 38.9679 154.385 38.9679 153.493 39.0787H152.824C152.601 39.4111 152.601 39.7435 152.824 40.0759H158.287C158.399 39.9651 158.51 39.7435 158.51 39.5219C158.51 39.3003 158.399 39.1895 158.287 39.0787H157.618C156.726 38.9679 156.726 38.9679 156.726 37.1952V30.769C156.726 28.8855 156.726 28.6639 157.395 28.6639H157.73ZM110.456 36.9736H109.564C109.341 37.6384 108.895 38.1923 108.338 38.6355C107.669 38.8571 107.111 38.8571 106.442 38.8571H106.219C105.55 38.9679 104.993 38.8571 104.435 38.5247C104.212 38.3031 103.989 38.0815 103.989 36.9736V30.6582C103.989 28.8855 104.212 28.7747 105.104 28.7747H105.662C105.885 28.7747 105.996 28.6639 105.996 28.2207C105.996 27.9991 105.773 27.7775 105.55 27.7775H100.087C99.9756 27.8883 99.8641 28.1099 99.8641 28.3315C99.8641 28.5531 99.9756 28.6639 100.087 28.7747H100.756C101.76 28.7747 101.76 28.8855 101.76 30.769V37.1952C101.76 38.9679 101.76 39.0787 100.868 39.0787H100.087C99.8641 39.4111 99.8641 39.7435 100.087 40.0759H109.899C110.233 39.3003 110.568 38.4139 110.791 37.5276C110.902 37.306 110.679 37.0844 110.456 36.9736ZM98.4147 29.3287C97.0768 27.9991 95.1814 27.2235 93.286 27.3343H92.9515C89.3837 27.3343 86.4848 30.215 86.4848 33.7605C86.4848 33.8713 86.4848 33.8713 86.4848 33.9821C86.4848 37.1952 88.7147 40.2975 93.286 40.2975H93.509C97.1883 40.4083 100.087 37.5276 100.199 33.8713C100.199 32.2094 99.6411 30.5474 98.4147 29.3287ZM93.509 39.1895C91.725 39.1895 88.8262 37.8599 88.8262 33.3173C88.8262 28.7747 91.2791 28.4423 92.9515 28.4423C94.6239 28.4423 97.7457 30.769 97.7457 33.8713V34.4253C97.6342 36.8628 96.4078 39.1895 93.509 39.1895ZM140.114 38.9679H139.445L138.776 38.7463C138.664 38.6355 138.553 38.5247 138.553 38.3031V29.7718C138.553 29.4395 138.553 29.2179 138.664 28.8855C138.776 28.6639 139.891 28.6639 139.891 28.6639C139.891 28.6639 140.114 28.5531 140.114 28.4423C140.114 28.3315 140.225 27.8883 140.002 27.6667H137.103C136.546 27.6667 136.434 27.9991 136.323 28.3315L132.42 36.5304L129.076 28.3315C128.964 27.8883 128.741 27.6667 128.407 27.6667H124.839L124.504 27.8883C124.504 28.2207 124.393 28.4423 124.727 28.6639H125.842C126.065 28.6639 126.177 28.8855 126.177 29.4395L125.954 37.8599C125.842 38.7463 125.731 38.9679 125.062 38.9679H124.17C123.947 39.3003 124.058 39.6327 124.281 39.9651H128.964C129.187 39.6327 129.187 39.3003 128.964 38.9679H128.072C127.849 38.9679 127.515 38.8571 127.403 38.6355C127.18 38.1923 127.18 37.6384 127.292 37.0844V30.1042L131.082 39.4111C131.194 39.6327 131.417 39.7435 131.64 39.7435H132.086L136.434 30.3258V37.8599C136.434 38.0815 136.434 38.1923 136.434 38.4139C136.434 38.6355 136.323 38.7463 136.211 38.8571L135.542 39.0787H134.65C134.427 39.4111 134.427 39.7435 134.65 40.0759H140.225C140.448 39.7435 140.448 39.3003 140.114 38.9679ZM123.389 27.6667H118.707C118.484 27.8883 118.372 28.2207 118.595 28.5531H120.045C120.268 28.8855 120.268 32.4309 120.268 34.3145C120.268 36.198 118.484 38.7463 116.811 38.7463C115.139 38.7463 113.466 37.4168 113.466 34.3145V30.215C113.466 28.7747 113.466 28.6639 114.247 28.6639H114.916C115.139 28.5531 115.25 28.4423 115.139 28.1099C115.027 27.7775 115.027 27.6667 114.804 27.6667H109.676C109.564 27.7775 109.453 27.9991 109.453 28.2207C109.453 28.4423 109.564 28.5531 109.676 28.6639H110.456C111.237 28.6639 111.237 28.6639 111.237 30.4366V34.7577C111.125 36.4196 111.794 38.0815 113.02 39.1895C114.024 39.8543 115.139 40.2975 116.365 40.2975H116.7C118.149 40.2975 119.487 39.7435 120.602 38.8571C121.717 37.6384 121.828 36.5304 121.828 34.3145C121.828 32.5417 121.94 30.6582 122.051 28.8855C122.163 28.7747 122.386 28.6639 122.609 28.6639H123.389C123.612 28.5531 123.612 28.4423 123.612 28.1099C123.612 27.8883 123.501 27.7775 123.389 27.6667ZM84.5894 10.2718C85.2584 10.2718 85.3699 10.3825 85.3699 11.9337V19.911C85.3699 22.0161 85.3699 22.0161 84.3664 22.2377H83.6975C83.4745 22.4593 83.363 22.7917 83.586 23.1241H89.3837C93.5089 23.1241 95.8503 21.4621 95.8503 18.5814C95.7388 16.8087 94.4009 15.2576 92.617 15.036C93.8434 14.5928 94.6239 13.4848 94.6239 12.1553C94.5124 11.0473 93.9549 10.161 92.9515 9.60698C91.8365 9.16379 90.7216 8.9422 89.4952 8.9422H88.9377L83.9205 9.16379C83.809 9.16379 83.586 9.38538 83.586 9.49618C83.4745 9.82857 83.586 10.0502 83.809 10.2718H84.5894ZM93.286 19.4678C93.286 21.5729 91.5021 22.0161 89.9411 22.0161H89.7181C89.2722 22.0161 88.7147 21.9053 88.3802 21.5729C88.0457 21.019 87.9342 20.2434 87.9342 19.5786V16.4763H88.9377C92.7285 16.2547 93.286 18.3599 93.286 19.4678ZM87.9342 10.3825H89.0492C90.4986 10.3825 92.171 11.0473 92.171 12.8201C92.171 14.5928 91.6135 15.036 88.8262 15.1468H87.9342V10.6041C87.9342 10.4933 87.9342 10.4933 87.9342 10.3825ZM85.3699 35.9764H84.8124C84.2549 37.7491 82.5825 38.8571 80.7986 38.8571H80.5756C76.8963 38.8571 74.4434 36.0872 74.4434 32.0986C74.2205 28.8855 76.7848 26.1156 80.0182 25.894C80.1297 25.894 80.1296 25.894 80.2411 25.894C83.0285 25.894 83.9204 26.8911 84.3664 28.7747H85.7044C85.4814 27.7775 85.3699 26.6696 85.3699 25.6724V25.34H84.5894C83.363 25.0076 82.0251 24.786 80.6871 24.786H80.2411C78.1228 24.786 76.1159 25.4508 74.4434 26.6696C72.6595 28.1099 71.5446 30.4366 71.6561 32.7633C71.5446 35.2008 72.771 37.6384 74.8894 38.9679C76.4503 39.9651 78.2342 40.519 80.1296 40.519H80.4641C81.6906 40.519 82.917 40.2975 84.0319 39.9651L84.7009 39.7435H84.9239C85.4814 38.7463 85.9273 37.7491 86.0388 36.6412C86.0388 36.3088 85.7044 35.9764 85.3699 35.9764ZM149.702 33.0957C151.04 32.5417 151.709 30.9906 151.151 29.661C150.817 28.8855 150.259 28.3315 149.591 28.1099C148.476 27.7775 147.361 27.6667 146.246 27.6667H141.451L141.117 27.8883C141.005 28.1099 141.005 28.4423 141.228 28.6639H142.12C142.789 28.6639 142.789 28.7747 142.789 30.1042V37.0844C142.789 38.8571 142.789 38.8571 142.009 38.9679H141.451C141.34 39.0787 141.228 39.1895 141.228 39.4111C141.228 39.6327 141.34 39.8543 141.451 39.9651H146.692C151.374 39.9651 152.489 38.9679 152.489 35.9764C152.266 34.5361 151.04 33.3173 149.591 33.0957H149.702ZM145.131 28.6639H146.134C147.472 28.6639 149.033 29.2179 149.033 30.769C149.033 32.3201 148.364 32.7633 145.911 32.7633H145.131V28.6639ZM145.577 38.6355C145.242 38.4139 145.019 37.5276 145.019 36.9736V33.9821H146.134C149.256 33.9821 149.925 35.5332 149.925 36.8628C149.925 38.1923 148.253 38.9679 146.803 38.9679C146.357 38.9679 145.911 38.8571 145.577 38.6355Z" fill="white"/>
</svg>
